<mxfile host="app.diagrams.net" modified="2021-05-20T09:37:45.151Z" agent="5.0 (Windows NT 10.0; Win64; x64) AppleWebKit/537.36 (KHTML, like Gecko) Chrome/90.0.4430.212 Safari/537.36 Edg/90.0.818.62" etag="SvNB6Bb0Ty8Txj_9nH_U" version="14.6.13" type="github">
  <diagram id="uVNGrFEYzEXuezLuoUxR" name="Page-1">
    <mxGraphModel dx="782" dy="525" grid="1" gridSize="10" guides="1" tooltips="1" connect="1" arrows="1" fold="1" page="1" pageScale="1" pageWidth="827" pageHeight="1169" math="0" shadow="0">
      <root>
        <mxCell id="0" />
        <mxCell id="1" parent="0" />
        <mxCell id="Olyl9p0nnXr-2hPKSYCf-1" value="data[0]" style="rounded=0;whiteSpace=wrap;html=1;fillColor=#d5e8d4;strokeColor=#82b366;" parent="1" vertex="1">
          <mxGeometry x="100" y="109" width="110" height="40" as="geometry" />
        </mxCell>
        <mxCell id="Olyl9p0nnXr-2hPKSYCf-2" value="data[1]" style="rounded=0;whiteSpace=wrap;html=1;fillColor=#d5e8d4;strokeColor=#82b366;" parent="1" vertex="1">
          <mxGeometry x="100" y="149" width="110" height="40" as="geometry" />
        </mxCell>
        <mxCell id="Olyl9p0nnXr-2hPKSYCf-3" value="data[2]" style="rounded=0;whiteSpace=wrap;html=1;fillColor=#d5e8d4;strokeColor=#82b366;" parent="1" vertex="1">
          <mxGeometry x="100" y="189" width="110" height="40" as="geometry" />
        </mxCell>
        <mxCell id="Olyl9p0nnXr-2hPKSYCf-4" value="data[3]" style="rounded=0;whiteSpace=wrap;html=1;fillColor=#d5e8d4;strokeColor=#82b366;" parent="1" vertex="1">
          <mxGeometry x="100" y="229" width="110" height="40" as="geometry" />
        </mxCell>
        <mxCell id="Olyl9p0nnXr-2hPKSYCf-5" value="data[4]" style="rounded=0;whiteSpace=wrap;html=1;fillColor=#d5e8d4;strokeColor=#82b366;" parent="1" vertex="1">
          <mxGeometry x="100" y="269" width="110" height="40" as="geometry" />
        </mxCell>
        <mxCell id="Olyl9p0nnXr-2hPKSYCf-6" value="data[5]" style="rounded=0;whiteSpace=wrap;html=1;fillColor=#d5e8d4;strokeColor=#82b366;" parent="1" vertex="1">
          <mxGeometry x="100" y="309" width="110" height="40" as="geometry" />
        </mxCell>
        <mxCell id="Olyl9p0nnXr-2hPKSYCf-7" value="data[6]" style="rounded=0;whiteSpace=wrap;html=1;fillColor=#d5e8d4;strokeColor=#82b366;" parent="1" vertex="1">
          <mxGeometry x="100" y="349" width="110" height="40" as="geometry" />
        </mxCell>
        <mxCell id="Olyl9p0nnXr-2hPKSYCf-8" value="data[7]" style="rounded=0;whiteSpace=wrap;html=1;fillColor=#d5e8d4;strokeColor=#82b366;" parent="1" vertex="1">
          <mxGeometry x="100" y="389" width="110" height="40" as="geometry" />
        </mxCell>
        <mxCell id="Olyl9p0nnXr-2hPKSYCf-9" value="data[8]" style="rounded=0;whiteSpace=wrap;html=1;fillColor=#d5e8d4;strokeColor=#82b366;" parent="1" vertex="1">
          <mxGeometry x="100" y="429" width="110" height="40" as="geometry" />
        </mxCell>
        <mxCell id="Olyl9p0nnXr-2hPKSYCf-10" value="data[9]" style="rounded=0;whiteSpace=wrap;html=1;fillColor=#d5e8d4;strokeColor=#82b366;" parent="1" vertex="1">
          <mxGeometry x="100" y="469" width="110" height="40" as="geometry" />
        </mxCell>
        <mxCell id="Olyl9p0nnXr-2hPKSYCf-11" value="" style="rounded=0;whiteSpace=wrap;html=1;fillColor=#fff2cc;strokeColor=#d6b656;" parent="1" vertex="1">
          <mxGeometry x="100" y="69" width="110" height="40" as="geometry" />
        </mxCell>
        <mxCell id="Olyl9p0nnXr-2hPKSYCf-12" value="" style="rounded=0;whiteSpace=wrap;html=1;fillColor=#fff2cc;strokeColor=#d6b656;" parent="1" vertex="1">
          <mxGeometry x="100" y="509" width="110" height="40" as="geometry" />
        </mxCell>
        <mxCell id="Olyl9p0nnXr-2hPKSYCf-13" value="1" style="ellipse;whiteSpace=wrap;html=1;aspect=fixed;fillColor=#f5f5f5;strokeColor=#666666;gradientColor=#b3b3b3;" parent="1" vertex="1">
          <mxGeometry x="100" y="114" width="30" height="30" as="geometry" />
        </mxCell>
        <mxCell id="Olyl9p0nnXr-2hPKSYCf-14" value="5" style="ellipse;whiteSpace=wrap;html=1;aspect=fixed;fillColor=#f5f5f5;strokeColor=#666666;gradientColor=#b3b3b3;" parent="1" vertex="1">
          <mxGeometry x="100" y="274" width="30" height="30" as="geometry" />
        </mxCell>
        <mxCell id="Olyl9p0nnXr-2hPKSYCf-15" value="4" style="ellipse;whiteSpace=wrap;html=1;aspect=fixed;fillColor=#f5f5f5;strokeColor=#666666;gradientColor=#b3b3b3;" parent="1" vertex="1">
          <mxGeometry x="100" y="234" width="30" height="30" as="geometry" />
        </mxCell>
        <mxCell id="Olyl9p0nnXr-2hPKSYCf-16" value="3" style="ellipse;whiteSpace=wrap;html=1;aspect=fixed;fillColor=#f5f5f5;strokeColor=#666666;gradientColor=#b3b3b3;" parent="1" vertex="1">
          <mxGeometry x="100" y="194" width="30" height="30" as="geometry" />
        </mxCell>
        <mxCell id="Olyl9p0nnXr-2hPKSYCf-17" value="2" style="ellipse;whiteSpace=wrap;html=1;aspect=fixed;fillColor=#f5f5f5;strokeColor=#666666;gradientColor=#b3b3b3;" parent="1" vertex="1">
          <mxGeometry x="100" y="154" width="30" height="30" as="geometry" />
        </mxCell>
        <mxCell id="Olyl9p0nnXr-2hPKSYCf-19" value="内存" style="rounded=0;whiteSpace=wrap;html=1;fillColor=#dae8fc;strokeColor=#6c8ebf;" parent="1" vertex="1">
          <mxGeometry x="100" y="29" width="110" height="40" as="geometry" />
        </mxCell>
        <mxCell id="Olyl9p0nnXr-2hPKSYCf-22" style="edgeStyle=orthogonalEdgeStyle;rounded=0;orthogonalLoop=1;jettySize=auto;html=1;exitX=0;exitY=0.5;exitDx=0;exitDy=0;entryX=1;entryY=0.5;entryDx=0;entryDy=0;" parent="1" source="Olyl9p0nnXr-2hPKSYCf-21" target="Olyl9p0nnXr-2hPKSYCf-3" edge="1">
          <mxGeometry relative="1" as="geometry" />
        </mxCell>
        <mxCell id="Olyl9p0nnXr-2hPKSYCf-21" value="100" style="ellipse;whiteSpace=wrap;html=1;aspect=fixed;fillColor=#f5f5f5;strokeColor=#666666;gradientColor=#b3b3b3;" parent="1" vertex="1">
          <mxGeometry x="240" y="194" width="30" height="30" as="geometry" />
        </mxCell>
        <mxCell id="Olyl9p0nnXr-2hPKSYCf-23" value="&lt;span&gt;&lt;font style=&quot;font-size: 13px&quot; color=&quot;#ffffff&quot;&gt;如果此时想在第3个位置插入数据100，则需要把第三个元素及之后的元素后移，然后把100放入第三个位置。&lt;/font&gt;&lt;/span&gt;" style="whiteSpace=wrap;html=1;shape=mxgraph.basic.roundRectCallout;dx=30;dy=15;size=5;boundedLbl=1;fillColor=#1ba1e2;fontColor=#ffffff;strokeColor=#1BA1E2;" parent="1" vertex="1">
          <mxGeometry x="242.5" y="90" width="175" height="99" as="geometry" />
        </mxCell>
        <mxCell id="Olyl9p0nnXr-2hPKSYCf-24" value="data[0]" style="rounded=0;whiteSpace=wrap;html=1;fillColor=#d5e8d4;strokeColor=#82b366;" parent="1" vertex="1">
          <mxGeometry x="460" y="109" width="110" height="40" as="geometry" />
        </mxCell>
        <mxCell id="Olyl9p0nnXr-2hPKSYCf-25" value="data[1]" style="rounded=0;whiteSpace=wrap;html=1;fillColor=#d5e8d4;strokeColor=#82b366;" parent="1" vertex="1">
          <mxGeometry x="460" y="149" width="110" height="40" as="geometry" />
        </mxCell>
        <mxCell id="Olyl9p0nnXr-2hPKSYCf-26" value="data[2]" style="rounded=0;whiteSpace=wrap;html=1;fillColor=#d5e8d4;strokeColor=#82b366;" parent="1" vertex="1">
          <mxGeometry x="460" y="189" width="110" height="40" as="geometry" />
        </mxCell>
        <mxCell id="Olyl9p0nnXr-2hPKSYCf-27" value="data[3]" style="rounded=0;whiteSpace=wrap;html=1;fillColor=#d5e8d4;strokeColor=#82b366;" parent="1" vertex="1">
          <mxGeometry x="460" y="229" width="110" height="40" as="geometry" />
        </mxCell>
        <mxCell id="Olyl9p0nnXr-2hPKSYCf-28" value="data[4]" style="rounded=0;whiteSpace=wrap;html=1;fillColor=#d5e8d4;strokeColor=#82b366;" parent="1" vertex="1">
          <mxGeometry x="460" y="269" width="110" height="40" as="geometry" />
        </mxCell>
        <mxCell id="Olyl9p0nnXr-2hPKSYCf-29" value="data[5]" style="rounded=0;whiteSpace=wrap;html=1;fillColor=#d5e8d4;strokeColor=#82b366;" parent="1" vertex="1">
          <mxGeometry x="460" y="309" width="110" height="40" as="geometry" />
        </mxCell>
        <mxCell id="Olyl9p0nnXr-2hPKSYCf-30" value="data[6]" style="rounded=0;whiteSpace=wrap;html=1;fillColor=#d5e8d4;strokeColor=#82b366;" parent="1" vertex="1">
          <mxGeometry x="460" y="349" width="110" height="40" as="geometry" />
        </mxCell>
        <mxCell id="Olyl9p0nnXr-2hPKSYCf-31" value="data[7]" style="rounded=0;whiteSpace=wrap;html=1;fillColor=#d5e8d4;strokeColor=#82b366;" parent="1" vertex="1">
          <mxGeometry x="460" y="389" width="110" height="40" as="geometry" />
        </mxCell>
        <mxCell id="Olyl9p0nnXr-2hPKSYCf-32" value="data[8]" style="rounded=0;whiteSpace=wrap;html=1;fillColor=#d5e8d4;strokeColor=#82b366;" parent="1" vertex="1">
          <mxGeometry x="460" y="429" width="110" height="40" as="geometry" />
        </mxCell>
        <mxCell id="Olyl9p0nnXr-2hPKSYCf-33" value="data[9]" style="rounded=0;whiteSpace=wrap;html=1;fillColor=#d5e8d4;strokeColor=#82b366;" parent="1" vertex="1">
          <mxGeometry x="460" y="469" width="110" height="40" as="geometry" />
        </mxCell>
        <mxCell id="Olyl9p0nnXr-2hPKSYCf-34" value="" style="rounded=0;whiteSpace=wrap;html=1;fillColor=#fff2cc;strokeColor=#d6b656;" parent="1" vertex="1">
          <mxGeometry x="460" y="69" width="110" height="40" as="geometry" />
        </mxCell>
        <mxCell id="Olyl9p0nnXr-2hPKSYCf-35" value="" style="rounded=0;whiteSpace=wrap;html=1;fillColor=#fff2cc;strokeColor=#d6b656;" parent="1" vertex="1">
          <mxGeometry x="460" y="509" width="110" height="40" as="geometry" />
        </mxCell>
        <mxCell id="Olyl9p0nnXr-2hPKSYCf-36" value="1" style="ellipse;whiteSpace=wrap;html=1;aspect=fixed;fillColor=#f5f5f5;strokeColor=#666666;gradientColor=#b3b3b3;" parent="1" vertex="1">
          <mxGeometry x="460" y="114" width="30" height="30" as="geometry" />
        </mxCell>
        <mxCell id="Olyl9p0nnXr-2hPKSYCf-37" value="5" style="ellipse;whiteSpace=wrap;html=1;aspect=fixed;fillColor=#f5f5f5;strokeColor=#666666;gradientColor=#b3b3b3;" parent="1" vertex="1">
          <mxGeometry x="460" y="314" width="30" height="30" as="geometry" />
        </mxCell>
        <mxCell id="Olyl9p0nnXr-2hPKSYCf-38" value="4" style="ellipse;whiteSpace=wrap;html=1;aspect=fixed;fillColor=#f5f5f5;strokeColor=#666666;gradientColor=#b3b3b3;" parent="1" vertex="1">
          <mxGeometry x="460" y="274" width="30" height="30" as="geometry" />
        </mxCell>
        <mxCell id="Olyl9p0nnXr-2hPKSYCf-39" value="3" style="ellipse;whiteSpace=wrap;html=1;aspect=fixed;fillColor=#f5f5f5;strokeColor=#666666;gradientColor=#b3b3b3;" parent="1" vertex="1">
          <mxGeometry x="460" y="234" width="30" height="30" as="geometry" />
        </mxCell>
        <mxCell id="Olyl9p0nnXr-2hPKSYCf-40" value="2" style="ellipse;whiteSpace=wrap;html=1;aspect=fixed;fillColor=#f5f5f5;strokeColor=#666666;gradientColor=#b3b3b3;" parent="1" vertex="1">
          <mxGeometry x="460" y="154" width="30" height="30" as="geometry" />
        </mxCell>
        <mxCell id="Olyl9p0nnXr-2hPKSYCf-41" value="内存" style="rounded=0;whiteSpace=wrap;html=1;fillColor=#dae8fc;strokeColor=#6c8ebf;" parent="1" vertex="1">
          <mxGeometry x="460" y="29" width="110" height="40" as="geometry" />
        </mxCell>
        <mxCell id="Olyl9p0nnXr-2hPKSYCf-62" value="" style="html=1;shadow=0;dashed=0;align=center;verticalAlign=middle;shape=mxgraph.arrows2.arrow;dy=0.6;dx=40;notch=0;fillColor=#60a917;strokeColor=#2D7600;fontColor=#ffffff;" parent="1" vertex="1">
          <mxGeometry x="270" y="272" width="120" height="34" as="geometry" />
        </mxCell>
        <mxCell id="Olyl9p0nnXr-2hPKSYCf-65" style="edgeStyle=orthogonalEdgeStyle;rounded=0;orthogonalLoop=1;jettySize=auto;html=1;entryX=1;entryY=0.5;entryDx=0;entryDy=0;" parent="1" source="Olyl9p0nnXr-2hPKSYCf-64" target="Olyl9p0nnXr-2hPKSYCf-26" edge="1">
          <mxGeometry relative="1" as="geometry" />
        </mxCell>
        <mxCell id="Olyl9p0nnXr-2hPKSYCf-64" value="100" style="ellipse;whiteSpace=wrap;html=1;aspect=fixed;fillColor=#f5f5f5;strokeColor=#666666;gradientColor=#b3b3b3;" parent="1" vertex="1">
          <mxGeometry x="720" y="194" width="30" height="30" as="geometry" />
        </mxCell>
        <mxCell id="Olyl9p0nnXr-2hPKSYCf-67" value="将100放入第三个位置，插入操作完成。" style="text;html=1;strokeColor=none;fillColor=none;align=center;verticalAlign=middle;whiteSpace=wrap;rounded=0;" parent="1" vertex="1">
          <mxGeometry x="590" y="160" width="130" height="49" as="geometry" />
        </mxCell>
      </root>
    </mxGraphModel>
  </diagram>
</mxfile>
